<svg width="37" height="36" viewBox="0 0 37 36" fill="none" xmlns="http://www.w3.org/2000/svg">
<rect x="1" y="0.5" width="35" height="35" rx="9.5" stroke="#0C0C0C" stroke-opacity="0.1"/>
<g opacity="0.8">
<path d="M20.7 10.9001C20.85 10.9001 21 10.9001 21.3 10.9001V13.1501C21.15 13.1501 20.85 13.1501 20.55 13.1501C20.25 13.1501 19.95 13.1501 19.8 13.3001C19.65 13.4501 19.65 13.6001 19.65 13.9501C19.65 14.2501 19.65 14.4501 19.65 14.7501H21.3V16.6501H19.65V24.9001H17.1V16.6001H15.75V14.7001H17.1V14.0501C17.1 12.9501 17.25 12.1501 17.55 11.8001C18 11.1501 18.9 10.8501 20.25 10.8501C20.4 10.9001 20.55 10.9001 20.7 10.9001Z" fill="#0C0C0C"/>
</g>
</svg>
