<svg width="37" height="36" viewBox="0 0 37 36" fill="none" xmlns="http://www.w3.org/2000/svg">
<rect x="1" y="0.5" width="35" height="35" rx="9.5" stroke="#0C0C0C" stroke-opacity="0.1"/>
<g opacity="0.8">
<path d="M26.4485 14.7225C26.4387 14.051 26.3143 13.3849 26.0762 12.7568C25.6595 11.6844 24.811 10.8365 23.7368 10.4213C23.1157 10.188 22.4591 10.063 21.7945 10.0488C20.9398 10.0106 20.6688 10 18.4991 10C16.3294 10 16.0513 10 15.2028 10.0488C14.5391 10.063 13.8825 10.188 13.2614 10.4213C12.1873 10.8365 11.3378 11.6844 10.922 12.7568C10.6884 13.3769 10.5622 14.0324 10.5498 14.695C10.5116 15.5492 10.5 15.8197 10.5 17.9858C10.5 20.1519 10.5 20.4287 10.5498 21.2766C10.5631 21.9401 10.6884 22.5947 10.922 23.2165C11.3387 24.2881 12.1873 25.136 13.2623 25.5512C13.8807 25.7924 14.5373 25.929 15.2037 25.9503C16.0593 25.9885 16.3303 26 18.5 26C20.6697 26 20.9478 26 21.7963 25.9503C22.46 25.937 23.1166 25.812 23.7386 25.5787C24.8127 25.1627 25.6613 24.3147 26.078 23.2432C26.3116 22.6222 26.4369 21.9676 26.4502 21.3033C26.4884 20.4499 26.5 20.1794 26.5 18.0124C26.4982 15.8463 26.4982 15.5714 26.4485 14.7225ZM18.4938 22.0821C16.2246 22.0821 14.3863 20.2468 14.3863 17.9814C14.3863 15.7159 16.2246 13.8807 18.4938 13.8807C20.7612 13.8807 22.6013 15.7159 22.6013 17.9814C22.6013 20.2468 20.7612 22.0821 18.4938 22.0821ZM22.7648 14.6852C22.2343 14.6852 21.807 14.2577 21.807 13.729C21.807 13.2004 22.2343 12.7728 22.7648 12.7728C23.2934 12.7728 23.7217 13.2004 23.7217 13.729C23.7217 14.2577 23.2934 14.6852 22.7648 14.6852Z" fill="#0C0C0C"/>
<path d="M18.4952 20.485C19.8773 20.485 20.9977 19.3646 20.9977 17.9825C20.9977 16.6004 19.8773 15.48 18.4952 15.48C17.1131 15.48 15.9927 16.6004 15.9927 17.9825C15.9927 19.3646 17.1131 20.485 18.4952 20.485Z" fill="#0C0C0C"/>
</g>
</svg>
