<svg xmlns="http://www.w3.org/2000/svg" width="36" height="36" fill="none" viewBox="0 0 36 36"><rect width="35" height="35" x=".5" y=".5" stroke="#fbfbfb" stroke-opacity=".1" rx="9.5"/><g fill="#fbfbfb" opacity=".8"><path d="M25.949 14.723a5.8 5.8 0 0 0-.373-1.966 4.1 4.1 0 0 0-2.34-2.336 5.9 5.9 0 0 0-1.942-.372C20.44 10.01 20.17 10 18 10s-2.448 0-3.296.049a5.9 5.9 0 0 0-1.942.372 4.1 4.1 0 0 0-2.339 2.336 5.8 5.8 0 0 0-.372 1.938c-.038.854-.05 1.125-.05 3.29 0 2.167 0 2.444.05 3.292.013.663.138 1.318.372 1.94a4.1 4.1 0 0 0 2.34 2.334 5.9 5.9 0 0 0 1.942.4c.855.037 1.126.049 3.296.049s2.448 0 3.296-.05a5.9 5.9 0 0 0 1.943-.371 4.1 4.1 0 0 0 2.339-2.336 5.8 5.8 0 0 0 .372-1.94c.038-.853.05-1.124.05-3.29-.002-2.167-.002-2.442-.052-3.29m-7.955 7.36a4.103 4.103 0 0 1-4.108-4.102c0-2.265 1.839-4.1 4.108-4.1a4.104 4.104 0 0 1 4.107 4.1 4.104 4.104 0 0 1-4.107 4.101m4.27-7.398a.956.956 0 1 1 0-1.912.956.956 0 1 1 0 1.912"/><path d="M17.995 20.485a2.502 2.502 0 1 0 0-5.005 2.502 2.502 0 0 0 0 5.005"/></g></svg>