<svg xmlns="http://www.w3.org/2000/svg" width="36" height="36" fill="none" viewBox="0 0 36 36"><rect width="35" height="35" x=".5" y=".5" stroke="#fbfbfb" stroke-opacity=".1" rx="9.5"/><path fill="#fbfbfb" fill-rule="evenodd" d="M23.15 11.75c-.85-.05-2.6-.1-5.25-.1h-.35q-3.825 0-5.1.15c-1.15.1-1.95.4-2.4.8-.4.35-.7 1-.8 1.85-.05.55-.1 1.7-.1 3.45v.25c0 1.65.05 2.8.15 3.35.15.8.4 1.4.9 1.75q.75.6 2.55.75c.85.05 2.6.1 5.25.1h.35q3.825 0 5.1-.15c1.15-.1 1.95-.4 2.4-.8.4-.35.7-1 .8-1.85.05-.55.1-1.7.1-3.45v-.25c0-1.65-.05-2.8-.15-3.35-.15-.8-.4-1.4-.9-1.75q-.75-.6-2.55-.75M21.2 17.9l-5.5 3.3v-6.6z" clip-rule="evenodd" opacity=".8"/></svg>