<svg width="37" height="36" viewBox="0 0 37 36" fill="none" xmlns="http://www.w3.org/2000/svg">
<rect x="1" y="0.5" width="35" height="35" rx="9.5" stroke="#0C0C0C" stroke-opacity="0.1"/>
<g opacity="0.8">
<path fill-rule="evenodd" clip-rule="evenodd" d="M23.6499 11.7499C22.7999 11.6999 21.0499 11.6499 18.3999 11.6499H18.0499C15.4999 11.6499 13.7999 11.6999 12.9499 11.7999C11.7999 11.8999 10.9999 12.1999 10.5499 12.5999C10.1499 12.9499 9.84991 13.5999 9.74991 14.4499C9.69991 14.9999 9.6499 16.1499 9.6499 17.8999V18.1499C9.6499 19.7999 9.6999 20.9499 9.7999 21.4999C9.9499 22.2999 10.1999 22.8999 10.6999 23.2499C11.1999 23.6499 12.0499 23.8999 13.2499 23.9999C14.0999 24.0499 15.8499 24.0999 18.4999 24.0999H18.8499C21.3999 24.0999 23.0999 24.0499 23.9499 23.9499C25.0999 23.8499 25.8999 23.5499 26.3499 23.1499C26.7499 22.7999 27.0499 22.1499 27.1499 21.2999C27.1999 20.7499 27.2499 19.5999 27.2499 17.8499V17.5999C27.2499 15.9499 27.1999 14.7999 27.0999 14.2499C26.9499 13.4499 26.6999 12.8499 26.1999 12.4999C25.6999 12.0999 24.8499 11.8499 23.6499 11.7499ZM21.6999 17.8999L16.1999 21.1999V14.5999L21.6999 17.8999Z" fill="#0C0C0C"/>
</g>
</svg>
